<svg width="154" height="154" viewBox="0 0 154 154" fill="none" xmlns="http://www.w3.org/2000/svg">
<g clip-path="url(#clip0_65_56)">
<path d="M148.412 57.8617C144.778 53.6542 139.487 51.2954 133.941 51.2954H133.367C130.18 22.6717 105.827 0.29541 76.3747 0.29541C46.9222 0.29541 22.5697 22.6717 19.3822 51.2954H18.9997C13.4534 51.2954 8.16219 53.7179 4.52844 57.8617C0.894692 62.0692 -0.699058 67.6154 0.0659422 73.0979L6.82344 120.4C9.50094 139.143 25.7572 153.232 44.6909 153.232H108.25C127.183 153.232 143.44 139.143 146.117 120.4L152.875 73.0979C153.64 67.6154 152.046 62.0692 148.412 57.8617ZM76.3747 13.0454C98.8147 13.0454 117.366 29.6842 120.49 51.2954H32.2597C35.3834 29.6842 53.9347 13.0454 76.3747 13.0454Z" fill="black"/>
</g>
<defs>
<clipPath id="clip0_65_56">
<rect width="153" height="153" fill="white" transform="translate(0.065918 0.29541)"/>
</clipPath>
</defs>
</svg>
