<svg width="223" height="45" viewBox="0 0 223 45" fill="none" xmlns="http://www.w3.org/2000/svg">
<rect width="223" height="45" rx="22.5" fill="white"/>
<path d="M28.3155 29.782C27.2221 29.782 26.1755 29.6287 25.1755 29.322C24.1755 29.002 23.3821 28.5954 22.7955 28.102L23.6955 26.082C24.2555 26.522 24.9488 26.8887 25.7755 27.182C26.6021 27.4754 27.4488 27.622 28.3155 27.622C29.0488 27.622 29.6421 27.542 30.0955 27.382C30.5488 27.222 30.8821 27.0087 31.0955 26.742C31.3088 26.462 31.4155 26.1487 31.4155 25.802C31.4155 25.3754 31.2621 25.0354 30.9555 24.782C30.6488 24.5154 30.2488 24.3087 29.7555 24.162C29.2755 24.002 28.7355 23.8554 28.1355 23.722C27.5488 23.5887 26.9555 23.4354 26.3555 23.262C25.7688 23.0754 25.2288 22.842 24.7355 22.562C24.2555 22.2687 23.8621 21.882 23.5555 21.402C23.2488 20.922 23.0955 20.3087 23.0955 19.562C23.0955 18.802 23.2955 18.1087 23.6955 17.482C24.1088 16.842 24.7288 16.3354 25.5555 15.962C26.3955 15.5754 27.4555 15.382 28.7355 15.382C29.5755 15.382 30.4088 15.4887 31.2355 15.702C32.0621 15.9154 32.7821 16.222 33.3955 16.622L32.5755 18.642C31.9488 18.2687 31.3021 17.9954 30.6355 17.822C29.9688 17.6354 29.3288 17.542 28.7155 17.542C27.9955 17.542 27.4088 17.6287 26.9555 17.802C26.5155 17.9754 26.1888 18.202 25.9755 18.482C25.7755 18.762 25.6755 19.082 25.6755 19.442C25.6755 19.8687 25.8221 20.2154 26.1155 20.482C26.4221 20.7354 26.8155 20.9354 27.2955 21.082C27.7888 21.2287 28.3355 21.3754 28.9355 21.522C29.5355 21.6554 30.1288 21.8087 30.7155 21.982C31.3155 22.1554 31.8555 22.382 32.3355 22.662C32.8288 22.942 33.2221 23.322 33.5155 23.802C33.8221 24.282 33.9755 24.8887 33.9755 25.622C33.9755 26.3687 33.7688 27.062 33.3555 27.702C32.9555 28.3287 32.3355 28.8354 31.4955 29.222C30.6555 29.5954 29.5955 29.782 28.3155 29.782ZM43.1983 29.582V17.782H38.5583V15.582H50.4383V17.782H45.7983V29.582H43.1983ZM53.7064 29.582L60.0064 15.582H62.5664L68.8864 29.582H66.1664L60.7464 16.962H61.7864L56.3864 29.582H53.7064ZM56.6064 26.342L57.3064 24.302H64.8664L65.5664 26.342H56.6064ZM74.6669 29.582V15.582H80.4269C81.6669 15.582 82.7269 15.782 83.6069 16.182C84.5002 16.582 85.1869 17.1554 85.6669 17.902C86.1469 18.6487 86.3869 19.5354 86.3869 20.562C86.3869 21.5887 86.1469 22.4754 85.6669 23.222C85.1869 23.9554 84.5002 24.522 83.6069 24.922C82.7269 25.3087 81.6669 25.502 80.4269 25.502H76.1069L77.2669 24.322V29.582H74.6669ZM83.8269 29.582L80.2869 24.502H83.0669L86.6269 29.582H83.8269ZM77.2669 24.602L76.1069 23.362H80.3069C81.4535 23.362 82.3135 23.1154 82.8869 22.622C83.4735 22.1287 83.7669 21.442 83.7669 20.562C83.7669 19.6687 83.4735 18.982 82.8869 18.502C82.3135 18.022 81.4535 17.782 80.3069 17.782H76.1069L77.2669 16.502V24.602ZM95.9405 29.582V17.782H91.3005V15.582H103.18V17.782H98.5405V29.582H95.9405ZM116.679 29.582L122.979 15.582H125.539L131.859 29.582H129.139L123.719 16.962H124.759L119.359 29.582H116.679ZM119.579 26.342L120.279 24.302H127.839L128.539 26.342H119.579ZM143.984 29.782C142.891 29.782 141.884 29.6087 140.964 29.262C140.058 28.902 139.264 28.402 138.584 27.762C137.904 27.1087 137.378 26.342 137.004 25.462C136.631 24.582 136.444 23.622 136.444 22.582C136.444 21.542 136.631 20.582 137.004 19.702C137.378 18.822 137.904 18.062 138.584 17.422C139.278 16.7687 140.084 16.2687 141.004 15.922C141.924 15.562 142.931 15.382 144.024 15.382C145.211 15.382 146.278 15.5754 147.224 15.962C148.184 16.3487 148.991 16.9154 149.644 17.662L148.004 19.262C147.458 18.7154 146.864 18.3154 146.224 18.062C145.598 17.7954 144.904 17.662 144.144 17.662C143.411 17.662 142.731 17.782 142.104 18.022C141.478 18.262 140.938 18.602 140.484 19.042C140.031 19.482 139.678 20.002 139.424 20.602C139.184 21.202 139.064 21.862 139.064 22.582C139.064 23.2887 139.184 23.942 139.424 24.542C139.678 25.142 140.031 25.6687 140.484 26.122C140.938 26.562 141.471 26.902 142.084 27.142C142.698 27.382 143.378 27.502 144.124 27.502C144.818 27.502 145.484 27.3954 146.124 27.182C146.778 26.9554 147.398 26.582 147.984 26.062L149.464 28.002C148.731 28.5887 147.878 29.0354 146.904 29.342C145.944 29.6354 144.971 29.782 143.984 29.782ZM147.004 27.662V22.422H149.464V28.002L147.004 27.662ZM154.913 29.582L161.213 15.582H163.773L170.093 29.582H167.373L161.953 16.962H162.993L157.593 29.582H154.913ZM157.813 26.342L158.513 24.302H166.073L166.773 26.342H157.813ZM175.874 29.582V15.582H178.474V29.582H175.874ZM186.261 29.582V15.582H188.401L197.181 26.362H196.121V15.582H198.701V29.582H196.561L187.781 18.802H188.841V29.582H186.261Z" fill="#FF6231"/>
</svg>
