<svg width="164" height="164" viewBox="0 0 164 164" fill="none" xmlns="http://www.w3.org/2000/svg">
<g clip-path="url(#clip0_65_53)">
<path d="M154.044 113.8L98.495 72.9347C112.737 60.4245 119.237 51.3101 115.128 33.3257C112.282 20.8698 102.393 10.9812 89.9307 8.14223C79.6277 5.77873 69.0327 8.15582 60.9031 14.6487C52.7667 21.1347 48.1076 30.8128 48.1076 41.2109C48.1076 46.8411 52.6648 51.3984 58.2951 51.3984C63.9254 51.3984 68.4826 46.8411 68.4826 41.2109C68.4826 37.0544 70.3503 33.1763 73.6035 30.5819C76.9042 27.9467 81.0811 27.0163 85.4006 28.0147C90.2023 29.1081 94.1687 33.0744 95.2621 37.8762C97.2521 46.5899 96.8378 47.9278 75.77 65.4911L9.94521 113.909C4.07042 118.385 0.565918 125.468 0.565918 132.851C0.565918 145.986 11.2492 156.662 24.3775 156.662H139.748C152.883 156.662 163.559 145.979 163.559 132.851C163.559 125.468 160.048 118.385 154.037 113.807L154.044 113.8ZM139.754 136.287H24.3775C22.4826 136.287 20.9409 134.746 20.9409 132.851C20.9409 131.785 21.4503 130.766 22.1566 130.222L82.0659 86.1513L141.833 130.121C142.682 130.766 143.191 131.791 143.191 132.851C143.191 134.746 141.649 136.287 139.754 136.287Z" fill="black"/>
</g>
<defs>
<clipPath id="clip0_65_53">
<rect width="163" height="163" fill="white" transform="translate(0.565918 0.454102)"/>
</clipPath>
</defs>
</svg>
