<svg width="168" height="167" viewBox="0 0 168 167" fill="none" xmlns="http://www.w3.org/2000/svg">
<path d="M84.0242 22.6704C46.7971 22.6704 8.60283 30.4932 7.52429 85.6882C7.85133 101.749 11.4349 122.914 18.7063 133.987C23.3475 141.049 31.5723 144.826 40.2006 143.85C48.7594 142.882 55.8847 137.404 58.7863 129.554C62.9613 118.217 71.0121 112.884 84.0103 112.788C96.8484 112.891 105.024 118.522 109.359 129.886C114.954 144.556 129.622 144.252 130.52 144.252C138.104 144.252 145.125 140.586 149.279 134.305C156.655 123.19 160.281 101.88 160.608 85.4253C159.55 30.2027 118.231 22.6773 84.0242 22.6773V22.6704ZM50.7077 90.1287L44.8001 84.2564L38.8925 90.1287C36.1787 92.8262 31.7741 92.8331 29.0534 90.1287C26.3327 87.4242 26.3396 83.046 29.0534 80.3485L34.961 74.4762L29.0534 68.604C26.3327 65.8996 26.3396 61.5213 29.0534 58.8238C31.7671 56.1263 36.1717 56.1194 38.8925 58.8238L44.8001 64.6961L50.7077 58.8238C53.4215 56.1263 57.8261 56.1194 60.5468 58.8238C63.2675 61.5282 63.2605 65.9065 60.5468 68.604L54.6392 74.4762L60.5468 80.3485C63.2675 83.0529 63.2605 87.4312 60.5468 90.1287C57.833 92.8262 53.4284 92.8331 50.7077 90.1287ZM114.996 44.0083C120.778 44.0083 125.468 48.6702 125.468 54.4179C125.468 60.1657 120.778 64.8275 114.996 64.8275C109.213 64.8275 104.523 60.1657 104.523 54.4179C104.523 48.6702 109.213 44.0083 114.996 44.0083ZM94.8514 84.8789C89.069 84.8789 84.3791 80.2171 84.3791 74.4693C84.3791 68.7216 89.069 64.0597 94.8514 64.0597C100.634 64.0597 105.324 68.7216 105.324 74.4693C105.324 80.2171 100.634 84.8789 94.8514 84.8789ZM114.996 104.937C109.213 104.937 104.523 100.275 104.523 94.5277C104.523 88.7799 109.213 84.1181 114.996 84.1181C120.778 84.1181 125.468 88.7799 125.468 94.5277C125.468 100.275 120.778 104.937 114.996 104.937ZM135.14 84.8789C129.358 84.8789 124.668 80.2171 124.668 74.4693C124.668 68.7216 129.358 64.0597 135.14 64.0597C140.922 64.0597 145.612 68.7216 145.612 74.4693C145.612 80.2171 140.922 84.8789 135.14 84.8789Z" fill="black"/>
</svg>
