<svg width="198" height="84" viewBox="0 0 198 84" fill="none" xmlns="http://www.w3.org/2000/svg">
<path d="M30.1224 25.8571H33.3367V29.0714H30.1224V25.8571ZM33.3367 25.8571H36.551V29.0714H33.3367V25.8571ZM33.3367 29.0714H36.551V32.2857H33.3367V29.0714ZM33.3367 32.2857H36.551V35.5H33.3367V32.2857ZM30.1224 32.2857H33.3367V35.5H30.1224V32.2857ZM30.1224 29.0714H33.3367V32.2857H30.1224V29.0714ZM30.1224 35.5H33.3367V38.7143H30.1224V35.5ZM30.1224 38.7143H33.3367V41.9286H30.1224V38.7143ZM33.3367 38.7143H36.551V41.9286H33.3367V38.7143ZM33.3367 35.5H36.551V38.7143H33.3367V35.5ZM33.3367 41.9286H36.551V45.1429H33.3367V41.9286ZM36.551 41.9286H39.7653V45.1429H36.551V41.9286ZM36.551 38.7143H39.7653V41.9286H36.551V38.7143ZM36.551 45.1429H39.7653V48.3571H36.551V45.1429ZM39.7653 45.1429H42.9796V48.3571H39.7653V45.1429ZM39.7653 41.9286H42.9796V45.1429H39.7653V41.9286ZM42.9796 41.9286H46.1939V45.1429H42.9796V41.9286ZM42.9796 45.1429H46.1939V48.3571H42.9796V45.1429ZM46.1939 45.1429H49.4082V48.3571H46.1939V45.1429ZM46.1939 41.9286H49.4082V45.1429H46.1939V41.9286ZM46.1939 38.7143H49.4082V41.9286H46.1939V38.7143ZM49.4082 38.7143H52.6224V41.9286H49.4082V38.7143ZM49.4082 41.9286H52.6224V45.1429H49.4082V41.9286ZM49.4082 35.5H52.6224V38.7143H49.4082V35.5ZM49.4082 32.2857H52.6224V35.5H49.4082V32.2857ZM49.4082 29.0714H52.6224V32.2857H49.4082V29.0714ZM49.4082 25.8571H52.6224V29.0714H49.4082V25.8571ZM52.6224 25.8571H55.8367V29.0714H52.6224V25.8571ZM52.6224 29.0714H55.8367V32.2857H52.6224V29.0714ZM52.6224 32.2857H55.8367V35.5H52.6224V32.2857ZM52.6224 35.5H55.8367V38.7143H52.6224V35.5ZM52.6224 38.7143H55.8367V41.9286H52.6224V38.7143ZM39.7653 48.3571H42.9796V51.5714H39.7653V48.3571ZM39.7653 51.5714H42.9796V54.7857H39.7653V51.5714ZM39.7653 54.7857H42.9796V58H39.7653V54.7857ZM42.9796 54.7857H46.1939V58H42.9796V54.7857ZM42.9796 51.5714H46.1939V54.7857H42.9796V51.5714ZM42.9796 48.3571H46.1939V51.5714H42.9796V48.3571ZM65.4963 25.8571H68.7106V29.0714H65.4963V25.8571ZM62.282 25.8571H65.4963V29.0714H62.282V25.8571ZM62.282 29.0714H65.4963V32.2857H62.282V29.0714ZM65.4963 29.0714H68.7106V32.2857H65.4963V29.0714ZM68.7106 29.0714H71.9249V32.2857H68.7106V29.0714ZM68.7106 25.8571H71.9249V29.0714H68.7106V25.8571ZM71.9249 25.8571H75.1392V29.0714H71.9249V25.8571ZM75.1392 25.8571H78.3535V29.0714H75.1392V25.8571ZM75.1392 29.0714H78.3535V32.2857H75.1392V29.0714ZM71.9249 29.0714H75.1392V32.2857H71.9249V29.0714ZM71.9249 32.2857H75.1392V35.5H71.9249V32.2857ZM75.1392 32.2857H78.3535V35.5H75.1392V32.2857ZM78.3535 29.0714H81.5677V32.2857H78.3535V29.0714ZM78.3535 32.2857H81.5677V35.5H78.3535V32.2857ZM78.3535 35.5H81.5677V38.7143H78.3535V35.5ZM78.3535 38.7143H81.5677V41.9286H78.3535V38.7143ZM78.3535 41.9286H81.5677V45.1429H78.3535V41.9286ZM78.3535 45.1429H81.5677V48.3571H78.3535V45.1429ZM78.3535 48.3571H81.5677V51.5714H78.3535V48.3571ZM78.3535 51.5714H81.5677V54.7857H78.3535V51.5714ZM75.1392 51.5714H78.3535V54.7857H75.1392V51.5714ZM75.1392 48.3571H78.3535V51.5714H75.1392V48.3571ZM75.1392 45.1429H78.3535V48.3571H75.1392V45.1429ZM75.1392 41.9286H78.3535V45.1429H75.1392V41.9286ZM75.1392 38.7143H78.3535V41.9286H75.1392V38.7143ZM75.1392 35.5H78.3535V38.7143H75.1392V35.5ZM71.9249 48.3571H75.1392V51.5714H71.9249V48.3571ZM71.9249 51.5714H75.1392V54.7857H71.9249V51.5714ZM75.1392 54.7857H78.3535V58H75.1392V54.7857ZM71.9249 54.7857H75.1392V58H71.9249V54.7857ZM68.7106 54.7857H71.9249V58H68.7106V54.7857ZM68.7106 51.5714H71.9249V54.7857H68.7106V51.5714ZM65.4963 54.7857H68.7106V58H65.4963V54.7857ZM62.282 54.7857H65.4963V58H62.282V54.7857ZM62.282 51.5714H65.4963V54.7857H62.282V51.5714ZM65.4963 51.5714H68.7106V54.7857H65.4963V51.5714ZM62.282 48.3571H65.4963V51.5714H62.282V48.3571ZM59.0677 51.5714H62.282V54.7857H59.0677V51.5714ZM59.0677 48.3571H62.282V51.5714H59.0677V48.3571ZM59.0677 45.1429H62.282V48.3571H59.0677V45.1429ZM59.0677 41.9286H62.282V45.1429H59.0677V41.9286ZM59.0677 38.7143H62.282V41.9286H59.0677V38.7143ZM59.0677 35.5H62.282V38.7143H59.0677V35.5ZM59.0677 32.2857H62.282V35.5H59.0677V32.2857ZM62.282 32.2857H65.4963V35.5H62.282V32.2857ZM59.0677 29.0714H62.282V32.2857H59.0677V29.0714ZM62.282 35.5H65.4963V38.7143H62.282V35.5ZM62.282 38.7143H65.4963V41.9286H62.282V38.7143ZM62.282 41.9286H65.4963V45.1429H62.282V41.9286ZM62.282 45.1429H65.4963V48.3571H62.282V45.1429ZM59.0677 54.7857H62.282V58H59.0677V54.7857ZM59.0677 25.8571H62.282V29.0714H59.0677V25.8571ZM88.0047 41.9286H91.219V45.1429H88.0047V41.9286ZM91.219 41.9286H94.4333V45.1429H91.219V41.9286ZM94.4333 41.9286H97.6475V45.1429H94.4333V41.9286ZM97.6475 41.9286H100.862V45.1429H97.6475V41.9286ZM91.219 45.1429H94.4333V48.3571H91.219V45.1429ZM88.0047 45.1429H91.219V48.3571H88.0047V45.1429ZM94.4333 45.1429H97.6475V48.3571H94.4333V45.1429ZM97.6475 45.1429H100.862V48.3571H97.6475V45.1429ZM100.862 48.3571H104.076V51.5714H100.862V48.3571ZM104.076 45.1429H107.29V48.3571H104.076V45.1429ZM100.862 45.1429H104.076V48.3571H100.862V45.1429ZM104.076 48.3571H107.29V51.5714H104.076V48.3571ZM100.862 51.5714H104.076V54.7857H100.862V51.5714ZM104.076 51.5714H107.29V54.7857H104.076V51.5714ZM104.076 54.7857H107.29V58H104.076V54.7857ZM100.862 54.7857H104.076V58H100.862V54.7857ZM88.0047 54.7857H91.219V58H88.0047V54.7857ZM84.7904 54.7857H88.0047V58H84.7904V54.7857ZM84.7904 51.5714H88.0047V54.7857H84.7904V51.5714ZM88.0047 51.5714H91.219V54.7857H88.0047V51.5714ZM88.0047 48.3571H91.219V51.5714H88.0047V48.3571ZM84.7904 48.3571H88.0047V51.5714H84.7904V48.3571ZM84.7904 45.1429H88.0047V48.3571H84.7904V45.1429ZM84.7904 41.9286H88.0047V45.1429H84.7904V41.9286ZM84.7904 38.7143H88.0047V41.9286H84.7904V38.7143ZM88.0047 38.7143H91.219V41.9286H88.0047V38.7143ZM84.7904 25.8571H88.0047V29.0714H84.7904V25.8571ZM88.0047 25.8571H91.219V29.0714H88.0047V25.8571ZM91.219 25.8571H94.4333V29.0714H91.219V25.8571ZM94.4333 25.8571H97.6475V29.0714H94.4333V25.8571ZM97.6475 25.8571H100.862V29.0714H97.6475V25.8571ZM100.862 25.8571H104.076V29.0714H100.862V25.8571ZM100.862 29.0714H104.076V32.2857H100.862V29.0714ZM97.6475 29.0714H100.862V32.2857H97.6475V29.0714ZM94.4333 29.0714H97.6475V32.2857H94.4333V29.0714ZM91.219 29.0714H94.4333V32.2857H91.219V29.0714ZM88.0047 29.0714H91.219V32.2857H88.0047V29.0714ZM84.7904 29.0714H88.0047V32.2857H84.7904V29.0714ZM84.7904 32.2857H88.0047V35.5H84.7904V32.2857ZM84.7904 35.5H88.0047V38.7143H84.7904V35.5ZM88.0047 35.5H91.219V38.7143H88.0047V35.5ZM88.0047 32.2857H91.219V35.5H88.0047V32.2857ZM100.862 32.2857H104.076V35.5H100.862V32.2857ZM104.076 32.2857H107.29V35.5H104.076V32.2857ZM104.076 29.0714H107.29V32.2857H104.076V29.0714ZM104.076 35.5H107.29V38.7143H104.076V35.5ZM100.862 35.5H104.076V38.7143H100.862V35.5ZM100.862 38.7143H104.076V41.9286H100.862V38.7143ZM104.076 38.7143H107.29V41.9286H104.076V38.7143ZM100.862 41.9286H104.076V45.1429H100.862V41.9286ZM110.513 25.8571H113.727V29.0714H110.513V25.8571ZM113.727 25.8571H116.942V29.0714H113.727V25.8571ZM116.942 25.8571H120.156V29.0714H116.942V25.8571ZM120.156 25.8571H123.37V29.0714H120.156V25.8571ZM123.37 25.8571H126.584V29.0714H123.37V25.8571ZM126.584 25.8571H129.799V29.0714H126.584V25.8571ZM126.584 29.0714H129.799V32.2857H126.584V29.0714ZM123.37 29.0714H126.584V32.2857H123.37V29.0714ZM120.156 29.0714H123.37V32.2857H120.156V29.0714ZM116.942 29.0714H120.156V32.2857H116.942V29.0714ZM113.727 29.0714H116.942V32.2857H113.727V29.0714ZM110.513 29.0714H113.727V32.2857H110.513V29.0714ZM116.942 32.2857H120.156V35.5H116.942V32.2857ZM116.942 35.5H120.156V38.7143H116.942V35.5ZM116.942 38.7143H120.156V41.9286H116.942V38.7143ZM116.942 41.9286H120.156V45.1429H116.942V41.9286ZM116.942 45.1429H120.156V48.3571H116.942V45.1429ZM116.942 48.3571H120.156V51.5714H116.942V48.3571ZM120.156 45.1429H123.37V48.3571H120.156V45.1429ZM120.156 41.9286H123.37V45.1429H120.156V41.9286ZM120.156 38.7143H123.37V41.9286H120.156V38.7143ZM120.156 35.5H123.37V38.7143H120.156V35.5ZM120.156 32.2857H123.37V35.5H120.156V32.2857ZM120.156 48.3571H123.37V51.5714H120.156V48.3571ZM120.156 51.5714H123.37V54.7857H120.156V51.5714ZM120.156 54.7857H123.37V58H120.156V54.7857ZM116.942 54.7857H120.156V58H116.942V54.7857ZM116.942 51.5714H120.156V54.7857H116.942V51.5714ZM139.442 54.7857H142.656V58H139.442V54.7857ZM139.442 51.5714H142.656V54.7857H139.442V51.5714ZM139.442 48.3571H142.656V51.5714H139.442V48.3571ZM136.227 51.5714H139.442V54.7857H136.227V51.5714ZM136.227 48.3571H139.442V51.5714H136.227V48.3571ZM133.013 48.3571H136.227V51.5714H133.013V48.3571ZM136.227 45.1429H139.442V48.3571H136.227V45.1429ZM142.656 48.3571H145.87V51.5714H142.656V48.3571ZM142.656 51.5714H145.87V54.7857H142.656V51.5714ZM145.87 48.3571H149.084V51.5714H145.87V48.3571ZM133.013 45.1429H136.227V48.3571H133.013V45.1429ZM136.227 41.9286H139.442V45.1429H136.227V41.9286ZM133.013 41.9286H136.227V45.1429H133.013V41.9286ZM133.013 38.7143H136.227V41.9286H133.013V38.7143ZM136.227 38.7143H139.442V41.9286H136.227V38.7143ZM136.227 35.5H139.442V38.7143H136.227V35.5ZM133.013 35.5H136.227V38.7143H133.013V35.5ZM133.013 32.2857H136.227V35.5H133.013V32.2857ZM136.227 32.2857H139.442V35.5H136.227V32.2857ZM133.013 25.8571H136.227V29.0714H133.013V25.8571ZM136.227 25.8571H139.442V29.0714H136.227V25.8571ZM136.227 29.0714H139.442V32.2857H136.227V29.0714ZM133.013 29.0714H136.227V32.2857H133.013V29.0714ZM155.513 54.7857H158.727V58H155.513V54.7857ZM155.513 51.5714H158.727V54.7857H155.513V51.5714ZM155.513 48.3571H158.727V51.5714H155.513V48.3571ZM152.299 51.5714H155.513V54.7857H152.299V51.5714ZM152.299 48.3571H155.513V51.5714H152.299V48.3571ZM149.084 48.3571H152.299V51.5714H149.084V48.3571ZM149.084 45.1429H152.299V48.3571H149.084V45.1429ZM158.727 48.3571H161.942V51.5714H158.727V48.3571ZM158.727 51.5714H161.942V54.7857H158.727V51.5714ZM158.727 45.1429H161.942V48.3571H158.727V45.1429ZM161.942 48.3571H165.156V51.5714H161.942V48.3571ZM161.942 45.1429H165.156V48.3571H161.942V45.1429ZM145.87 45.1429H149.084V48.3571H145.87V45.1429ZM158.727 25.8571H161.942V29.0714H158.727V25.8571ZM161.942 25.8571H165.156V29.0714H161.942V25.8571ZM161.942 29.0714H165.156V32.2857H161.942V29.0714ZM161.942 32.2857H165.156V35.5H161.942V32.2857ZM161.942 35.5H165.156V38.7143H161.942V35.5ZM161.942 38.7143H165.156V41.9286H161.942V38.7143ZM158.727 38.7143H161.942V41.9286H158.727V38.7143ZM158.727 41.9286H161.942V45.1429H158.727V41.9286ZM158.727 35.5H161.942V38.7143H158.727V35.5ZM158.727 32.2857H161.942V35.5H158.727V32.2857ZM158.727 29.0714H161.942V32.2857H158.727V29.0714ZM161.942 41.9286H165.156V45.1429H161.942V41.9286ZM149.084 41.9286H152.299V45.1429H149.084V41.9286ZM145.87 41.9286H149.084V45.1429H145.87V41.9286ZM145.87 38.7143H149.084V41.9286H145.87V38.7143ZM149.084 38.7143H152.299V41.9286H149.084V38.7143ZM149.084 35.5H152.299V38.7143H149.084V35.5ZM145.87 35.5H149.084V38.7143H145.87V35.5ZM145.87 32.2857H149.084V35.5H145.87V32.2857ZM149.084 32.2857H152.299V35.5H149.084V32.2857ZM145.87 25.8571H149.084V29.0714H145.87V25.8571ZM149.084 25.8571H152.299V29.0714H149.084V25.8571ZM149.084 29.0714H152.299V32.2857H149.084V29.0714ZM145.87 29.0714H149.084V32.2857H145.87V29.0714Z" fill="#FF6231"/>
</svg>
