<svg width="198" height="84" viewBox="0 0 198 84" fill="none" xmlns="http://www.w3.org/2000/svg">
<path d="M44.9525 42.84C44.4991 38.9733 44.3125 35.8267 44.3925 33.4C44.3391 32.2533 44.8058 31.16 45.7925 30.12C46.7258 29.1333 47.6991 28.5867 48.7125 28.48C49.8325 28.4 50.5525 29.0267 50.8725 30.36C51.0858 31.1067 51.3525 31.9733 51.6725 32.96C51.9925 33.9467 52.2991 34.9867 52.5925 36.08C52.8858 35.68 53.3525 34.9733 53.9925 33.96C54.6325 32.9467 55.2325 32.04 55.7925 31.24C57.1525 29.2933 58.3525 27.9333 59.3925 27.16C60.4058 26.76 61.2725 26.6533 61.9925 26.84C62.7391 27 63.2725 27.2667 63.5925 27.64C63.9391 28.0133 64.0725 28.56 63.9925 29.28C63.9391 30.96 62.6591 33.6 60.1525 37.2C59.5658 38.0267 58.9658 38.9867 58.3525 40.08C57.7658 41.1733 57.0725 42.4 56.2725 43.76C55.4991 45.0933 54.7525 46.4267 54.0325 47.76C52.3791 50.7733 51.0858 53.64 50.1525 56.36C50.1791 56.3067 50.2858 56.3733 50.4725 56.56C50.6591 56.72 50.8325 56.96 50.9925 57.28C51.4191 58.08 51.3791 58.7467 50.8725 59.28C49.5925 60.6133 48.0058 61.36 46.1125 61.52C44.3791 61.6533 42.8858 61.3333 41.6325 60.56C40.3791 59.84 39.9658 58.9467 40.3925 57.88H40.2725C40.8591 56.36 41.5258 54.9333 42.2725 53.6C43.0191 52.24 43.7925 50.84 44.5925 49.4L46.3925 46.2C45.9391 46.3067 45.5658 45.9867 45.2725 45.24C45.0591 44.6267 44.9525 43.8267 44.9525 42.84Z" fill="#009C48"/>
<path d="M84.6809 41.76C84.5742 42.9067 84.3609 44.08 84.0409 45.28C83.7476 46.48 83.3076 47.6533 82.7209 48.8C82.1609 49.9467 81.4809 51.0533 80.6809 52.12C79.9076 53.1867 79.0409 54.1733 78.0809 55.08C77.1209 55.9867 76.0942 56.7467 75.0009 57.36C72.6542 58.7467 70.3876 59.24 68.2009 58.84C67.7209 59.88 67.0009 60.5333 66.0409 60.8C65.1076 61.0933 64.1742 61.0933 63.2409 60.8C62.3342 60.5333 61.5342 60.0133 60.8409 59.24C60.1476 58.4667 59.8009 57.4133 59.8009 56.08C59.8009 54.72 59.8942 53.3333 60.0809 51.92C60.2676 50.5067 60.5209 49.1467 60.8409 47.84C61.3476 45.68 61.9742 43.6533 62.7209 41.76C64.4809 37.4667 65.4809 34.4533 65.7209 32.72C66.0676 30.4 66.7076 28.96 67.6409 28.4C69.1876 27.4933 70.6542 27.1067 72.0409 27.24C73.4276 27.3733 74.6809 27.7067 75.8009 28.24C77.6409 29.12 79.6276 30.6 81.7609 32.68C84.1076 34.9467 85.0809 37.9733 84.6809 41.76ZM68.9609 53.76C70.3209 53.0667 71.4142 52.36 72.2409 51.64C73.0942 50.8933 73.8942 50.2133 74.6409 49.6C75.7876 48.4533 76.6276 47.0933 77.1609 45.52C78.3342 42.0533 77.5876 39.4267 74.9209 37.64C74.5209 37.3467 73.9209 36.9467 73.1209 36.44C72.7476 37.2933 72.4676 38.1867 72.2809 39.12C72.1209 40.0533 71.8942 40.96 71.6009 41.84L70.5209 45.36L69.6409 49.16C69.5876 49.6933 69.5076 50.2133 69.4009 50.72C69.2942 51.2 69.2009 51.7067 69.1209 52.24L68.9609 53.76Z" fill="#9747FF"/>
<path d="M90.5509 58.12C90.3109 59.1867 89.4842 59.84 88.0709 60.08C86.7642 60.32 85.5242 60.1733 84.3509 59.64C83.0442 59.08 82.4709 58.2933 82.6309 57.28C82.4709 55.7333 83.2842 52.3733 85.0709 47.2C87.7376 39.44 90.4042 33.8933 93.0709 30.56C93.7642 29.7067 94.3509 29.16 94.8309 28.92C95.3376 28.6533 95.9109 28.4133 96.5509 28.2C97.1909 27.9867 97.8576 27.7867 98.5509 27.6C99.9376 27.2267 101.244 26.9733 102.471 26.84C103.724 26.68 104.844 26.8267 105.831 27.28C106.818 27.7067 107.578 28.3467 108.111 29.2C108.671 30.0533 109.018 31.0667 109.151 32.24C109.284 33.3867 109.244 34.6 109.031 35.88C108.818 37.1333 108.431 38.4133 107.871 39.72C107.311 41 106.604 42.2 105.751 43.32C103.884 45.7733 101.698 47.36 99.1909 48.08L99.5909 48.76C99.9376 49.2933 100.351 49.88 100.831 50.52C101.338 51.16 101.831 51.8133 102.311 52.48C102.818 53.1467 103.271 53.8133 103.671 54.48C104.071 55.1467 104.364 55.7733 104.551 56.36C104.978 57.6667 104.644 58.6133 103.551 59.2C102.671 59.7333 101.978 59.8667 101.471 59.6C101.258 59.4667 101.044 59.2933 100.831 59.08C100.618 58.8933 100.324 58.7333 99.9509 58.6C98.3776 59.0533 97.1776 58.6533 96.3509 57.4C95.8442 56.6 95.4576 55.8667 95.1909 55.2C94.9242 54.5333 94.6976 53.9733 94.5109 53.52C94.0309 52.5333 93.4842 51.68 92.8709 50.96C92.5776 51.68 92.2442 52.6 91.8709 53.72C91.4176 55.1333 90.9109 56.6 90.3509 58.12H90.5509ZM98.6309 34.84C98.1242 35.9867 97.7776 36.7867 97.5909 37.24C97.2176 38.1467 96.8042 39.1467 96.3509 40.24C96.2709 40.8267 96.2042 41.24 96.1509 41.48L96.7109 40.92L97.3909 40.6C97.8709 40.3333 98.3109 40.0933 98.7109 39.88C99.1109 39.6667 99.4709 39.4 99.7909 39.08C100.404 38.4667 100.938 37.4667 101.391 36.08C101.391 35.8133 101.431 35.5467 101.511 35.28C101.618 35.0133 101.684 34.7467 101.711 34.48C101.818 33.8933 101.578 33.48 100.991 33.24C100.458 33.1867 99.7909 33.6267 98.9909 34.56C98.8309 34.7467 98.7109 34.84 98.6309 34.84Z" fill="#FF6231"/>
<path d="M120.752 47.76C120.032 49.84 119.299 51.84 118.552 53.76C117.805 55.68 117.179 57.1333 116.672 58.12C116.192 59.1333 115.765 59.8267 115.392 60.2C115.019 60.5733 114.632 60.8267 114.232 60.96C113.859 61.0933 113.472 61.1467 113.072 61.12C112.699 61.0933 112.312 61.0667 111.912 61.04C109.672 60.6933 108.979 59.08 109.832 56.2C110.392 53.9067 110.845 52.04 111.192 50.6C111.539 49.1333 111.819 47.9333 112.032 47C112.272 46.04 112.472 45.2533 112.632 44.64C112.792 44 112.965 43.3733 113.152 42.76C113.339 42.1467 113.565 41.4533 113.832 40.68C114.125 39.9067 114.499 38.88 114.952 37.6C113.939 37.7333 113.032 37.6267 112.232 37.28C111.059 36.7733 110.579 35.68 110.792 34C110.899 33.2267 111.312 32.5067 112.032 31.84C112.405 31.4933 112.845 31.12 113.352 30.72C114.392 29.8933 116.459 29.0133 119.552 28.08C122.752 27.12 125.499 26.6667 127.792 26.72C128.405 26.6133 129.032 26.6933 129.672 26.96C130.339 27.2 130.872 27.5333 131.272 27.96C131.672 28.3867 131.872 28.8533 131.872 29.36C131.899 29.8667 131.579 30.32 130.912 30.72C130.592 30.9333 130.365 31.2933 130.232 31.8C130.099 32.28 129.952 32.8 129.792 33.36C129.632 33.8933 129.392 34.3867 129.072 34.84C128.779 35.2933 128.299 35.56 127.632 35.64C127.285 35.8267 126.792 35.96 126.152 36.04C125.539 36.12 125.125 36.1867 124.912 36.24C124.725 36.2667 124.619 36.3333 124.592 36.44C124.112 37.8533 123.539 39.5733 122.872 41.6C122.205 43.6 121.499 45.6533 120.752 47.76ZM115.352 37.16C115.299 37.16 115.272 37.1733 115.272 37.2C115.272 37.2 115.299 37.2 115.352 37.2V37.16Z" fill="#FFBC13"/>
<path d="M146.43 41.12C149.15 32.9333 150.964 28.84 151.87 28.84C151.977 28.84 152.097 28.8533 152.23 28.88C152.657 28.9067 153.137 28.7333 153.67 28.36C154.364 27.7733 155.164 27.32 156.07 27C157.004 26.68 157.91 26.56 158.79 26.64C160.844 26.8267 162.137 27.9067 162.67 29.88V30C162.537 30.3733 162.404 30.68 162.27 30.92H162.43C161.764 31.7467 161.124 32.8267 160.51 34.16C159.897 35.4667 159.43 36.4933 159.11 37.24C158.79 37.96 158.337 38.88 157.75 40C157.164 41.12 156.484 42.4933 155.71 44.12C154.964 45.7467 154.177 47.36 153.35 48.96C151.377 52.8 149.417 55.8133 147.47 58C146.484 59.2 145.15 59.7867 143.47 59.76C142.75 59.7333 142.057 59.5467 141.39 59.2C140.724 58.8533 140.204 58.32 139.83 57.6L138.99 55.08C138.644 55.3733 138.244 55.7467 137.79 56.2C137.337 56.6533 136.857 57.12 136.35 57.6C135.177 58.72 134.27 59.3067 133.63 59.36C132.99 59.4133 132.444 59.4133 131.99 59.36C131.537 59.3333 131.11 59.24 130.71 59.08C129.804 58.7333 129.217 58.0667 128.95 57.08C128.497 52.52 128.724 46.6933 129.63 39.6C129.87 37.8667 130.084 36.16 130.27 34.48C130.724 32.1067 131.577 30.4 132.83 29.36C133.897 28.4533 134.937 28.1867 135.95 28.56C136.404 28.72 136.75 28.9867 136.99 29.36C137.23 29.7333 137.31 30.1867 137.23 30.72C137.284 32.3467 137.27 33.56 137.19 34.36C137.084 35.72 137.044 36.72 137.07 37.36C137.097 38 137.084 38.5333 137.03 38.96C137.004 39.36 136.977 39.7467 136.95 40.12C136.95 40.4667 136.964 40.76 136.99 41C137.044 41.2133 137.15 41.2533 137.31 41.12C137.924 39.8133 138.444 38.8667 138.87 38.28C139.297 37.6933 139.75 37.08 140.23 36.44C140.977 35.7733 141.63 35.52 142.19 35.68C142.484 35.7333 142.79 35.84 143.11 36C143.43 36.1333 143.857 36.2533 144.39 36.36C144.737 36.6533 144.964 36.9733 145.07 37.32C145.15 37.4 145.23 37.48 145.31 37.56C145.39 37.6133 145.444 37.6933 145.47 37.8C145.524 37.88 145.59 38.08 145.67 38.4C145.777 38.72 145.884 39.0667 145.99 39.44C146.097 39.7867 146.19 40.1333 146.27 40.48C146.35 40.8 146.404 41.0133 146.43 41.12ZM147.39 57.88C147.39 57.9333 147.39 57.9467 147.39 57.92C147.417 57.8667 147.43 57.8133 147.43 57.76L147.39 57.88Z" fill="#6F6DFF"/>
</svg>
