<svg width="127" height="128" viewBox="0 0 127 128" fill="none" xmlns="http://www.w3.org/2000/svg">
<g clip-path="url(#clip0_65_48)">
<path d="M118.974 4.94491C116.604 2.95253 113.826 1.51437 110.838 0.733886C107.851 -0.0465949 104.729 -0.149998 101.697 0.431116L53.4807 9.54337C47.4627 10.6801 42.0284 13.9014 38.1178 18.6499C34.2072 23.3984 32.0664 29.3753 32.0659 35.5466V87.6695C28.8878 85.7649 25.2632 84.7493 21.5659 84.7274C17.4125 84.7274 13.3524 85.9688 9.89892 88.2946C6.44549 90.6204 3.75387 93.9262 2.16443 97.7939C0.574986 101.662 0.159116 105.918 0.969406 110.023C1.7797 114.129 3.77975 117.901 6.71666 120.861C9.65356 123.821 13.3954 125.837 17.469 126.654C21.5426 127.471 25.765 127.052 29.6023 125.449C33.4395 123.847 36.7193 121.134 39.0268 117.654C41.3343 114.173 42.5659 110.08 42.5659 105.894V57.6129C42.5657 55.1437 43.4221 52.7522 44.9868 50.8523C46.5515 48.9524 48.726 47.6638 51.1339 47.2095L109.845 36.097C110.606 35.9524 111.39 35.9796 112.14 36.1766C112.89 36.3736 113.587 36.7355 114.182 37.2363C114.777 37.7371 115.254 38.3644 115.58 39.0732C115.906 39.7819 116.072 40.5546 116.066 41.3357V71.8157C112.89 69.9037 109.265 68.8807 105.566 68.8524C101.412 68.8524 97.3524 70.0938 93.8989 72.4196C90.4455 74.7454 87.7539 78.0512 86.1644 81.9189C84.575 85.7866 84.1591 90.0425 84.9694 94.1484C85.7797 98.2544 87.7798 102.026 90.7167 104.986C93.6536 107.946 97.3954 109.962 101.469 110.779C105.543 111.596 109.765 111.177 113.602 109.574C117.44 107.972 120.719 105.259 123.027 101.779C125.334 98.2978 126.566 94.2054 126.566 90.019V21.2274C126.569 18.1171 125.891 15.0446 124.578 12.2297C123.266 9.41475 121.352 6.92713 118.974 4.94491Z" fill="black"/>
</g>
<defs>
<clipPath id="clip0_65_48">
<rect width="126" height="127" fill="white" transform="translate(0.565887 0.0605469)"/>
</clipPath>
</defs>
</svg>
