<svg width="146" height="146" viewBox="0 0 146 146" fill="none" xmlns="http://www.w3.org/2000/svg">
<path d="M54.9017 24.3143C54.9017 37.6507 44.0889 48.4636 30.7525 48.4636C17.416 48.4636 6.60321 37.6507 6.60321 24.3143C6.60321 10.9779 17.416 0.165039 30.7525 0.165039C44.0889 0.165039 54.9017 10.9779 54.9017 24.3143ZM85.0883 0.165039C71.7519 0.165039 60.9391 10.9779 60.9391 24.3143C60.9391 37.6507 71.7519 48.4636 85.0883 48.4636C98.4248 48.4636 109.238 37.6507 109.238 24.3143C109.238 10.9779 98.4248 0.165039 85.0883 0.165039ZM115.275 84.6875V120.911C115.275 134.248 104.462 145.061 91.1257 145.061H24.7152C11.3787 145.061 0.565887 134.248 0.565887 120.911V84.6875C0.565887 71.3511 11.3787 60.5382 24.7152 60.5382H91.1257C104.462 60.5382 115.275 71.3511 115.275 84.6875ZM131.968 71.9246L127.35 76.5431V123.332L131.968 127.951C136.949 132.932 145.462 129.406 145.462 122.36V77.5091C145.462 70.4696 136.949 66.9498 131.968 71.9246Z" fill="black"/>
</svg>
